# xmcd
#
# Track frame offsets:
#	150
#	17969
#	34998
#
# Disc length: 663 seconds
#
# Revision: 2
# Processed by: cddbd v1.5.2PL0 Copyright (c) Steve Scherf et al.
# Submitted via: dBpowerAMP V4.0
#
DISCID=20029503
DTITLE=James Blunt - Goodbye My Lover [CDS)
DYEAR=2005
DGENRE=Alt. Pop/Rock
TTITLE0=Goodbye My Lover (Radio Edit)
TTITLE1=Where Is My Mind?
TTITLE2=You're Beautiful (Demo Version)
EXTD=
EXTT0=
EXTT1=
EXTT2=
PLAYORDER=
